<svg xmlns="http://www.w3.org/2000/svg" width="1706.7" height="1706.7" version="1.0" viewBox="0 0 1280 1280"><path fill="#555" d="M601.7 1.1a837.1 837.1 0 0 0-102 13.1l-6.7 1.2-2 6.6c-3.3 11.1-11.6 41.7-15.9 58.4-2.3 8.8-4.3 16-4.4 16.1l-14.2 4.9c-21 7.2-41.8 15.8-62.6 25.8l-18.6 9-16.9-10A962.5 962.5 0 0 0 302.8 95a686.6 686.6 0 0 0-187.5 177.5A310.9 310.9 0 0 0 95 302.9c0 1 19.5 35.7 32.7 58l8.5 14.4-8.6 17.6a613.9 613.9 0 0 0-26.6 64.8l-4.4 13.2-4.1 1-28.5 7.6c-13.5 3.5-29.9 8-36.5 9.8l-12 3.4-.7 3.9C3 562.2.6 586.8.6 640c0 47.7 2.5 76.6 10.5 122l3.6 21.2c.5 3.7.7 3.8 7.4 5.8 16.3 4.7 21.8 6.3 47.4 13l27 7.3 4.9 14.2c7.2 21 15.8 41.8 25.8 62.7l9 18.6-6.4 10.9c-16 26.8-34.8 60-34.8 61.5 0 1.4 15.3 23.6 27.8 40.3a670.1 670.1 0 0 0 137.7 138.1 464.5 464.5 0 0 0 42.3 29.4c1.1 0 35.2-19.2 58.1-32.7l14.4-8.5 16.6 8a567.2 567.2 0 0 0 71.8 29.3c6.9 2.2 7.2 2.4 8.2 6.3 14.3 54.1 20.5 76.4 21.3 77 .6.5 31.2 5.8 47.1 8.1a673 673 0 0 0 199.4 0c16-2.3 46.5-7.6 47.2-8.1.6-.5 6.9-23 14.6-52.3a1825 1825 0 0 1 7.8-28.7l12.5-4.3c24.6-8.4 40.8-15 66.3-27.3l16.6-8 14.4 8.5c22.9 13.5 57 32.7 58.1 32.7 1.5 0 24.1-15.7 42.2-29.3a672 672 0 0 0 136.3-136.3 466.3 466.3 0 0 0 29.3-42.2c0-1.2-13.1-24.7-27.8-49.7l-12-20.5c-1.4-2.4-1.1-3.2 4.2-13.8a633 633 0 0 0 32.2-78.5c1.6-5.2 2.1-5.8 5.3-6.6 43.8-11.2 75.3-20 76.8-21.5 2.1-2.1 9.8-49.8 12.7-78.6a690.3 690.3 0 0 0-9.2-200.4l-2.7-14.9-12-3.4c-6.6-1.8-23-6.3-36.5-9.8l-28.5-7.6-4.1-1-4.4-13.2a613.9 613.9 0 0 0-26.6-64.8l-8.6-17.6 8.5-14.4c13.5-22.9 32.7-57 32.7-58.1A683.6 683.6 0 0 0 977.2 95c-1.3 0-32.5 17.5-55.6 31.2l-16.9 10-18.6-9a573.9 573.9 0 0 0-76.8-30.7c-.1 0-3.2-11.3-6.8-25-9.9-37.7-14.6-53.9-15.8-55.1-2.5-2.4-46.8-9.6-78.7-12.9a717.6 717.6 0 0 0-106.3-2.4zm63.5 491.8a150 150 0 0 1 116.3 99.4c5.7 17.2 6.9 25.5 6.9 47.7 0 22.2-1.2 30.5-6.9 47.7a151.3 151.3 0 0 1-94 93.8 120 120 0 0 1-47.5 6.9 120 120 0 0 1-47.5-6.9 151.3 151.3 0 0 1-94-93.8 133.8 133.8 0 0 1-7.2-43.2c-.4-14.3-.2-18.9 1.5-29A149.4 149.4 0 0 1 614 493c14.6-2.6 36.3-2.6 51.2-.1z"/></svg>