<svg xmlns="http://www.w3.org/2000/svg" xml:space="preserve" style="fill-rule:evenodd;clip-rule:evenodd;stroke-linejoin:round;stroke-miterlimit:2" viewBox="0 0 363 237">
  <path d="M.061 0v-.81h.342v.112H.226v.219h.15v.115h-.15V0H.061Z" style="fill:#f0f;fill-rule:nonzero" transform="matrix(86 0 0 86 36.536 229.66)"/>
  <path d="M.061 0v-.81h.21c.055 0 .102.006.14.018.04.013.07.035.09.066a.223.223 0 0 1 .032.13.474.474 0 0 1-.008.089.181.181 0 0 1-.03.066.152.152 0 0 1-.061.046L.546 0H.377L.284-.367H.226V0H.061Zm.165-.465h.048a.123.123 0 0 0 .063-.013.078.078 0 0 0 .033-.04.2.2 0 0 0 .009-.065.158.158 0 0 0-.02-.086C.345-.688.319-.698.282-.698H.226v.233Z" style="fill:#f0f;fill-rule:nonzero" transform="matrix(86 0 0 86 72.742 229.66)"/>
  <path d="M.063-.81h.164V0H.063z" style="fill:#f0f;fill-rule:nonzero" transform="matrix(86 0 0 86 122.622 229.66)"/>
  <path d="M.061 0v-.81h.353v.114H.226v.215h.145v.115H.226v.254h.19V0H.061Z" style="fill:#f0f;fill-rule:nonzero" transform="matrix(86 0 0 86 147.562 229.66)"/>
  <path d="M.061 0v-.81h.115l.18.422V-.81h.136V0h-.11l-.18-.448V0H.061Z" style="fill:#f0f;fill-rule:nonzero" transform="matrix(86 0 0 86 185.23 229.66)"/>
  <path d="M.061 0v-.81h.198c.069 0 .122.009.161.026a.16.16 0 0 1 .081.083.375.375 0 0 1 .024.145v.295c0 .06-.008.109-.024.148a.159.159 0 0 1-.08.085A.36.36 0 0 1 .263 0H.061Zm.165-.115h.035c.031 0 .053-.005.066-.015a.062.062 0 0 0 .024-.042.473.473 0 0 0 .005-.071v-.334a.258.258 0 0 0-.007-.068.055.055 0 0 0-.025-.037.13.13 0 0 0-.064-.012H.226v.579Z" style="fill:#f0f;fill-rule:nonzero" transform="matrix(86 0 0 86 232.874 229.66)"/>
  <path d="M.271.011a.249.249 0 0 1-.125-.028A.176.176 0 0 1 .07-.1a.412.412 0 0 1-.029-.141l.142-.024a.363.363 0 0 0 .011.083c.005.023.014.04.026.05a.06.06 0 0 0 .043.017c.021 0 .036-.007.044-.02a.098.098 0 0 0 .011-.046.148.148 0 0 0-.024-.086.412.412 0 0 0-.065-.069L.145-.409a.356.356 0 0 1-.074-.086.237.237 0 0 1-.028-.118c0-.067.02-.118.059-.154a.23.23 0 0 1 .16-.053c.041 0 .074.007.1.02a.158.158 0 0 1 .061.053.245.245 0 0 1 .03.073.55.55 0 0 1 .01.079l-.141.021a.557.557 0 0 0-.006-.065.089.089 0 0 0-.018-.044C.289-.694.275-.699.257-.699c-.019 0-.034.007-.043.021A.092.092 0 0 0 .2-.63a.11.11 0 0 0 .02.07c.013.019.03.038.053.058l.082.072a.493.493 0 0 1 .088.1.258.258 0 0 1 .01.243.185.185 0 0 1-.072.072.23.23 0 0 1-.11.026Z" style="fill:#f0f;fill-rule:nonzero" transform="matrix(86 0 0 86 282.152 229.66)"/>
  <path d="M.354-.257a.523.523 0 0 1 .011.095.312.312 0 0 1-.009.068.158.158 0 0 1-.023.047.133.133 0 0 1-.031.028A.141.141 0 0 1 .207 0a.154.154 0 0 1-.089-.028.164.164 0 0 1-.029-.03.302.302 0 0 1-.021-.033.31.31 0 0 1-.028-.092.752.752 0 0 1-.014-.134A1.609 1.609 0 0 1 .04-.565a.15.15 0 0 1 .024-.062.195.195 0 0 1 .093-.075.536.536 0 0 1 .289-.018.5.5 0 0 1 .062.016.367.367 0 0 1 .044.021.148.148 0 0 1 .029.024.092.092 0 0 1 .027.061.099.099 0 0 1-.034.082.154.154 0 0 1-.037.023.17.17 0 0 1-.043.015.493.493 0 0 1-.12.01.221.221 0 0 1 .076.023.117.117 0 0 1 .036.033.069.069 0 0 1 .013.041c0 .028-.008.05-.023.065a.148.148 0 0 1-.05.034.2.2 0 0 1-.072.015Z" style="fill:#ff0;fill-rule:nonzero" transform="matrix(200 0 0 200 -1 150.6)"/>
  <path d="M.622-.009a.211.211 0 0 1-.098.008.169.169 0 0 1-.1-.059.196.196 0 0 1-.045-.085.607.607 0 0 1-.006-.026l-.005.026a.237.237 0 0 1-.045.085.19.19 0 0 1-.048.04.156.156 0 0 1-.052.019.207.207 0 0 1-.099-.008.111.111 0 0 1-.034-.019.085.085 0 0 1-.024-.026.114.114 0 0 1-.016-.031.131.131 0 0 1-.01-.032.351.351 0 0 1-.006-.081.745.745 0 0 1 .091-.329.88.88 0 0 1 .045-.071.322.322 0 0 1 .067-.073.318.318 0 0 1 .065-.037.206.206 0 0 1 .048-.013l.023-.001.023.001a.225.225 0 0 1 .113.05.303.303 0 0 1 .068.073.88.88 0 0 1 .087.16.778.778 0 0 1 .048.24.305.305 0 0 1-.014.113.154.154 0 0 1-.041.057.13.13 0 0 1-.035.019Zm-.245-.36a.041.041 0 0 0-.03.013.036.036 0 0 0-.01.029c.001.014.006.024.012.029a.051.051 0 0 0 .028.008.039.039 0 0 0 .028-.01.037.037 0 0 0 .011-.027.045.045 0 0 0-.01-.029C.399-.365.39-.369.377-.369Z" style="fill:#ff0;fill-rule:nonzero" transform="matrix(200 0 0 200 96.4 150.6)"/>
  <path d="M.223-.415a.302.302 0 0 1-.102-.008.13.13 0 0 1-.037-.015.127.127 0 0 1-.033-.024.095.095 0 0 1-.022-.035.128.128 0 0 1-.009-.05c0-.033.007-.06.021-.079a.138.138 0 0 1 .045-.045.173.173 0 0 1 .066-.024.952.952 0 0 1 .293-.018c.047.003.092.008.135.015a.157.157 0 0 1 .07.031.146.146 0 0 1 .034.043.13.13 0 0 1 .012.055.21.21 0 0 1-.009.055.171.171 0 0 1-.022.04.153.153 0 0 1-.065.042C.573-.423.543-.42.509-.423a.913.913 0 0 1 .013.234.523.523 0 0 1-.013.082.135.135 0 0 1-.033.071.153.153 0 0 1-.045.034A.174.174 0 0 1 .308 0a.153.153 0 0 1-.05-.034.143.143 0 0 1-.035-.073.603.603 0 0 1-.012-.106 1.066 1.066 0 0 1 .001-.099c.003-.035.006-.07.011-.103Z" style="fill:#ff0;fill-rule:nonzero" transform="matrix(200 0 0 200 220.6 150.6)"/>
</svg>