<?xml version="1.0" standalone="no"?>
<!DOCTYPE svg PUBLIC "-//W3C//DTD SVG 20010904//EN"
 "http://www.w3.org/TR/2001/REC-SVG-20010904/DTD/svg10.dtd">
<svg version="1.0" xmlns="http://www.w3.org/2000/svg"
 width="363.000000pt" height="363.000000pt" viewBox="0 0 363.000000 363.000000"
 preserveAspectRatio="xMidYMid meet">
<metadata>
Created by potrace 1.14, written by Peter Selinger 2001-2017
</metadata>
<g transform="translate(0.000000,363.000000) scale(0.100000,-0.100000)"
fill="#000000" stroke="none">
<path d="M492 2944 c-266 -38 -403 -157 -426 -369 -3 -27 -9 -75 -12 -105 -3
-30 -7 -131 -9 -225 -4 -365 46 -571 166 -679 59 -53 125 -74 229 -71 152 3
242 79 268 226 11 57 9 188 -3 252 -6 33 -5 37 14 38 11 1 24 2 29 3 4 1 24 5
46 10 44 8 66 19 119 60 96 72 98 208 5 278 -38 29 -109 58 -140 58 -12 0 -19
2 -16 5 2 3 40 7 84 9 95 6 125 12 184 33 148 55 212 176 155 296 -31 66 -158
143 -270 164 -22 4 -42 8 -45 8 -82 20 -272 24 -378 9z"/>
<path d="M1595 2915 c-118 -40 -222 -122 -293 -232 -17 -26 -35 -52 -40 -58
-23 -28 -101 -180 -129 -251 -34 -85 -66 -200 -78 -274 -4 -25 -9 -54 -11 -65
-13 -66 -12 -245 2 -304 37 -159 119 -229 276 -237 114 -5 186 23 266 102 53
54 112 161 112 204 0 12 5 18 10 15 6 -3 10 -14 10 -23 0 -38 62 -145 114
-198 75 -74 129 -97 236 -98 143 -2 222 40 275 144 36 72 48 151 41 272 -17
271 -84 480 -225 708 -109 174 -239 280 -382 309 -70 15 -109 12 -184 -14z
m173 -705 c53 -49 19 -133 -53 -133 -45 0 -65 19 -72 70 -5 35 -2 43 22 61 35
28 75 28 103 2z"/>
<path d="M2847 2924 c-1 -1 -45 -4 -97 -8 -97 -6 -224 -26 -294 -47 -81 -23
-160 -92 -192 -167 -20 -48 -21 -166 -2 -212 44 -105 153 -160 320 -165 32 0
60 -4 64 -8 3 -3 2 -37 -4 -74 -11 -72 -10 -450 1 -493 4 -14 10 -38 13 -55
29 -134 138 -218 284 -218 137 0 232 66 270 190 11 37 23 84 26 103 3 19 7 46
10 60 6 35 5 316 -1 365 -3 22 -9 63 -13 91 l-9 51 76 6 c42 3 98 14 125 24
98 36 167 135 169 243 2 83 -10 124 -52 178 -66 82 -149 109 -396 127 -89 7
-293 13 -298 9z"/>
<path d="M2973 1399 c-44 -13 -98 -69 -107 -109 -18 -93 6 -164 79 -232 130
-119 145 -139 147 -193 1 -38 -19 -65 -49 -65 -23 0 -51 41 -58 86 -6 42 -7
44 -38 40 -92 -12 -98 -20 -76 -101 24 -87 83 -128 179 -128 114 1 180 65 180
175 -1 89 -21 122 -154 248 -68 64 -87 97 -80 136 6 32 19 44 50 44 28 0 45
-21 48 -62 3 -35 7 -37 94 -27 32 3 32 4 27 42 -11 72 -44 123 -90 141 -31 12
-116 15 -152 5z"/>
<path d="M419 1393 c-4 -47 0 -674 5 -681 3 -6 34 -10 68 -9 l63 1 5 156 5
155 50 1 c28 1 56 2 63 3 7 1 12 17 12 46 0 29 -5 46 -12 46 -7 1 -35 2 -63 3
l-50 1 0 95 0 95 73 -1 72 -1 0 49 0 48 -145 0 c-80 0 -145 -3 -146 -7z"/>
<path d="M780 1052 l0 -350 70 1 70 1 1 45 c0 25 1 96 1 158 l-1 112 26 -2
c27 -2 33 -19 68 -167 2 -8 11 -45 20 -81 l17 -65 69 -1 c53 0 69 4 69 14 0 8
-17 76 -39 151 -54 190 -52 178 -26 190 58 26 79 181 36 259 -36 64 -72 76
-238 81 l-143 4 0 -350z m257 222 c21 -28 17 -120 -6 -143 -21 -21 -83 -37
-99 -27 -13 8 -12 189 0 197 17 11 91 -8 105 -27z"/>
<path d="M1280 1052 l0 -349 70 0 70 1 1 55 c0 58 0 482 -1 584 l0 57 -70 0
-70 0 0 -348z"/>
<path d="M1530 1051 l0 -349 150 1 c97 1 150 5 151 11 0 6 2 28 3 49 l2 37
-83 0 -83 0 0 110 0 110 63 0 63 0 -1 48 -1 47 -39 1 c-94 4 -85 -7 -85 94 l0
90 80 0 80 0 0 50 0 50 -150 0 -150 0 0 -349z"/>
<path d="M1905 1053 l0 -348 57 -1 c45 -1 58 2 62 15 2 9 3 91 2 184 0 92 1
167 4 167 3 0 14 -21 23 -47 10 -27 43 -109 73 -184 l55 -135 45 -1 c24 -1 45
2 45 6 1 3 2 160 3 349 l1 342 -57 0 c-39 0 -58 -4 -59 -12 0 -7 0 -87 0 -178
l0 -165 -28 60 c-15 33 -50 113 -76 178 l-50 117 -50 0 -50 0 0 -347z"/>
<path d="M2380 1052 l0 -349 118 2 c152 3 184 10 225 50 47 46 56 90 56 295 1
239 -12 283 -95 325 -32 16 -64 20 -171 23 l-133 4 0 -350z m230 230 c22 -18
23 -25 25 -203 1 -182 -4 -242 -24 -262 -5 -5 -27 -10 -48 -11 l-38 -1 -1 248
-1 247 33 0 c17 0 42 -8 54 -18z"/>
</g>
</svg>
